<mxfile host="app.diagrams.net" modified="2021-09-19T16:15:07.052Z" agent="5.0 (Windows NT 10.0; Win64; x64) AppleWebKit/537.36 (KHTML, like Gecko) Chrome/91.0.4472.106 Safari/537.36" etag="EayzbeB76vLDS2-PCaa9" version="15.2.9" type="github">
  <diagram id="M8B92jB95uVXwZjkqpSg" name="第 1 页">
    <mxGraphModel dx="1024" dy="571" grid="1" gridSize="10" guides="1" tooltips="1" connect="1" arrows="1" fold="1" page="1" pageScale="1" pageWidth="827" pageHeight="1169" math="0" shadow="0">
      <root>
        <mxCell id="0" />
        <mxCell id="1" parent="0" />
        <mxCell id="XkrVDyB-vq-3rI1GUVId-1" value="&lt;b&gt;&lt;font style=&quot;font-size: 18px&quot;&gt;田忌赛马&lt;/font&gt;&lt;/b&gt;" style="text;html=1;strokeColor=none;fillColor=none;align=center;verticalAlign=middle;whiteSpace=wrap;rounded=0;fontSize=16;" parent="1" vertex="1">
          <mxGeometry x="350" y="30" width="80" height="30" as="geometry" />
        </mxCell>
        <mxCell id="uETBXoT33YP5iFmjCPUC-2" value="&lt;b&gt;齐威王(B)&lt;/b&gt;" style="text;html=1;strokeColor=none;fillColor=none;align=center;verticalAlign=middle;whiteSpace=wrap;rounded=0;" vertex="1" parent="1">
          <mxGeometry x="150" y="120" width="60" height="20" as="geometry" />
        </mxCell>
        <mxCell id="uETBXoT33YP5iFmjCPUC-3" value="&lt;b&gt;田忌(B)&lt;/b&gt;" style="text;html=1;strokeColor=none;fillColor=none;align=center;verticalAlign=middle;whiteSpace=wrap;rounded=0;" vertex="1" parent="1">
          <mxGeometry x="386" y="120" width="56" height="20" as="geometry" />
        </mxCell>
        <mxCell id="uETBXoT33YP5iFmjCPUC-4" value="20" style="rounded=1;whiteSpace=wrap;html=1;" vertex="1" parent="1">
          <mxGeometry x="150" y="190" width="60" height="40" as="geometry" />
        </mxCell>
        <mxCell id="uETBXoT33YP5iFmjCPUC-5" value="18" style="rounded=1;whiteSpace=wrap;html=1;" vertex="1" parent="1">
          <mxGeometry x="150" y="250" width="60" height="40" as="geometry" />
        </mxCell>
        <mxCell id="uETBXoT33YP5iFmjCPUC-6" value="16" style="rounded=1;whiteSpace=wrap;html=1;" vertex="1" parent="1">
          <mxGeometry x="150" y="320" width="60" height="40" as="geometry" />
        </mxCell>
        <mxCell id="uETBXoT33YP5iFmjCPUC-7" value="13" style="rounded=1;whiteSpace=wrap;html=1;" vertex="1" parent="1">
          <mxGeometry x="150" y="390" width="60" height="40" as="geometry" />
        </mxCell>
        <mxCell id="uETBXoT33YP5iFmjCPUC-8" value="6" style="rounded=1;whiteSpace=wrap;html=1;" vertex="1" parent="1">
          <mxGeometry x="150" y="460" width="60" height="40" as="geometry" />
        </mxCell>
        <mxCell id="uETBXoT33YP5iFmjCPUC-9" value="22" style="rounded=1;whiteSpace=wrap;html=1;" vertex="1" parent="1">
          <mxGeometry x="384" y="190" width="60" height="40" as="geometry" />
        </mxCell>
        <mxCell id="uETBXoT33YP5iFmjCPUC-10" value="15" style="rounded=1;whiteSpace=wrap;html=1;" vertex="1" parent="1">
          <mxGeometry x="384" y="260" width="60" height="40" as="geometry" />
        </mxCell>
        <mxCell id="uETBXoT33YP5iFmjCPUC-11" value="14" style="rounded=1;whiteSpace=wrap;html=1;" vertex="1" parent="1">
          <mxGeometry x="384" y="320" width="60" height="40" as="geometry" />
        </mxCell>
        <mxCell id="uETBXoT33YP5iFmjCPUC-12" value="10" style="rounded=1;whiteSpace=wrap;html=1;" vertex="1" parent="1">
          <mxGeometry x="384" y="390" width="60" height="40" as="geometry" />
        </mxCell>
        <mxCell id="uETBXoT33YP5iFmjCPUC-13" value="3" style="rounded=1;whiteSpace=wrap;html=1;" vertex="1" parent="1">
          <mxGeometry x="384" y="460" width="60" height="40" as="geometry" />
        </mxCell>
        <mxCell id="uETBXoT33YP5iFmjCPUC-14" value="" style="whiteSpace=wrap;html=1;aspect=fixed;" vertex="1" parent="1">
          <mxGeometry x="600" y="230" width="170" height="170" as="geometry" />
        </mxCell>
        <mxCell id="uETBXoT33YP5iFmjCPUC-15" value="FOFO" style="rounded=1;whiteSpace=wrap;html=1;" vertex="1" parent="1">
          <mxGeometry x="600" y="170" width="60" height="30" as="geometry" />
        </mxCell>
        <mxCell id="uETBXoT33YP5iFmjCPUC-16" value="LOFO" style="rounded=1;whiteSpace=wrap;html=1;" vertex="1" parent="1">
          <mxGeometry x="710" y="170" width="60" height="30" as="geometry" />
        </mxCell>
        <mxCell id="uETBXoT33YP5iFmjCPUC-21" value="3" style="rounded=1;whiteSpace=wrap;html=1;" vertex="1" parent="1">
          <mxGeometry x="660" y="260" width="60" height="40" as="geometry" />
        </mxCell>
        <mxCell id="uETBXoT33YP5iFmjCPUC-22" style="rounded=0;orthogonalLoop=1;jettySize=auto;html=1;exitX=1;exitY=0.5;exitDx=0;exitDy=0;entryX=0;entryY=0.5;entryDx=0;entryDy=0;dashed=1;dashPattern=1 1;strokeColor=#999999;" edge="1" parent="1" source="uETBXoT33YP5iFmjCPUC-13" target="uETBXoT33YP5iFmjCPUC-21">
          <mxGeometry relative="1" as="geometry" />
        </mxCell>
        <mxCell id="uETBXoT33YP5iFmjCPUC-23" value="" style="endArrow=classic;startArrow=classic;html=1;dashed=1;dashPattern=1 1;strokeColor=#FF3333;entryX=0;entryY=0.5;entryDx=0;entryDy=0;exitX=1;exitY=0.5;exitDx=0;exitDy=0;" edge="1" parent="1" source="uETBXoT33YP5iFmjCPUC-8" target="uETBXoT33YP5iFmjCPUC-12">
          <mxGeometry width="50" height="50" relative="1" as="geometry">
            <mxPoint x="230" y="490" as="sourcePoint" />
            <mxPoint x="280" y="440" as="targetPoint" />
            <Array as="points" />
          </mxGeometry>
        </mxCell>
        <mxCell id="uETBXoT33YP5iFmjCPUC-24" value="" style="endArrow=classic;startArrow=classic;html=1;dashed=1;dashPattern=1 1;strokeColor=#999999;entryX=0;entryY=0.5;entryDx=0;entryDy=0;exitX=1;exitY=0.5;exitDx=0;exitDy=0;" edge="1" parent="1" source="uETBXoT33YP5iFmjCPUC-8" target="uETBXoT33YP5iFmjCPUC-13">
          <mxGeometry width="50" height="50" relative="1" as="geometry">
            <mxPoint x="240" y="510" as="sourcePoint" />
            <mxPoint x="290" y="460" as="targetPoint" />
            <Array as="points" />
          </mxGeometry>
        </mxCell>
        <mxCell id="uETBXoT33YP5iFmjCPUC-25" value="" style="endArrow=classic;startArrow=classic;html=1;dashed=1;dashPattern=1 1;strokeColor=#FF3333;entryX=0;entryY=0.5;entryDx=0;entryDy=0;exitX=1;exitY=0.5;exitDx=0;exitDy=0;" edge="1" parent="1">
          <mxGeometry width="50" height="50" relative="1" as="geometry">
            <mxPoint x="210" y="410" as="sourcePoint" />
            <mxPoint x="384" y="340" as="targetPoint" />
            <Array as="points" />
          </mxGeometry>
        </mxCell>
        <mxCell id="uETBXoT33YP5iFmjCPUC-26" value="" style="endArrow=classic;startArrow=classic;html=1;dashed=1;dashPattern=1 1;strokeColor=#999999;entryX=0;entryY=0.5;entryDx=0;entryDy=0;exitX=1;exitY=0.5;exitDx=0;exitDy=0;" edge="1" parent="1" target="uETBXoT33YP5iFmjCPUC-10">
          <mxGeometry width="50" height="50" relative="1" as="geometry">
            <mxPoint x="210" y="340" as="sourcePoint" />
            <mxPoint x="384" y="270" as="targetPoint" />
            <Array as="points" />
          </mxGeometry>
        </mxCell>
        <mxCell id="uETBXoT33YP5iFmjCPUC-27" value="15" style="rounded=1;whiteSpace=wrap;html=1;" vertex="1" parent="1">
          <mxGeometry x="660" y="330" width="60" height="40" as="geometry" />
        </mxCell>
        <mxCell id="uETBXoT33YP5iFmjCPUC-28" value="" style="endArrow=classic;html=1;dashed=1;dashPattern=1 1;strokeColor=#999999;entryX=0;entryY=0.5;entryDx=0;entryDy=0;exitX=1;exitY=0.5;exitDx=0;exitDy=0;" edge="1" parent="1" source="uETBXoT33YP5iFmjCPUC-10" target="uETBXoT33YP5iFmjCPUC-27">
          <mxGeometry width="50" height="50" relative="1" as="geometry">
            <mxPoint x="450" y="310" as="sourcePoint" />
            <mxPoint x="500" y="260" as="targetPoint" />
          </mxGeometry>
        </mxCell>
        <mxCell id="uETBXoT33YP5iFmjCPUC-31" value="" style="endArrow=classic;startArrow=classic;html=1;dashed=1;dashPattern=1 1;strokeColor=#FF3333;entryX=0;entryY=0.5;entryDx=0;entryDy=0;" edge="1" parent="1" target="uETBXoT33YP5iFmjCPUC-9">
          <mxGeometry width="50" height="50" relative="1" as="geometry">
            <mxPoint x="210" y="340" as="sourcePoint" />
            <mxPoint x="380" y="280" as="targetPoint" />
            <Array as="points">
              <mxPoint x="210" y="340" />
            </Array>
          </mxGeometry>
        </mxCell>
        <mxCell id="uETBXoT33YP5iFmjCPUC-33" value="" style="endArrow=classic;startArrow=classic;html=1;dashed=1;dashPattern=1 1;strokeColor=#009900;entryX=0;entryY=0.5;entryDx=0;entryDy=0;" edge="1" parent="1" target="uETBXoT33YP5iFmjCPUC-21">
          <mxGeometry width="50" height="50" relative="1" as="geometry">
            <mxPoint x="210" y="270" as="sourcePoint" />
            <mxPoint x="384" y="140" as="targetPoint" />
            <Array as="points">
              <mxPoint x="210" y="270" />
            </Array>
          </mxGeometry>
        </mxCell>
        <mxCell id="uETBXoT33YP5iFmjCPUC-34" value="" style="endArrow=classic;startArrow=classic;html=1;dashed=1;dashPattern=1 1;strokeColor=#009900;" edge="1" parent="1">
          <mxGeometry width="50" height="50" relative="1" as="geometry">
            <mxPoint x="210" y="210" as="sourcePoint" />
            <mxPoint x="660" y="350" as="targetPoint" />
            <Array as="points">
              <mxPoint x="210" y="210" />
            </Array>
          </mxGeometry>
        </mxCell>
        <mxCell id="uETBXoT33YP5iFmjCPUC-35" value="&lt;h1&gt;&lt;span style=&quot;font-size: 14px ; font-weight: 400&quot;&gt;对A、B进行排序，能减少比较次数&lt;/span&gt;&lt;/h1&gt;" style="text;html=1;strokeColor=none;fillColor=none;spacing=5;spacingTop=-20;whiteSpace=wrap;overflow=hidden;rounded=0;" vertex="1" parent="1">
          <mxGeometry x="130" y="560" width="190" height="80" as="geometry" />
        </mxCell>
        <mxCell id="uETBXoT33YP5iFmjCPUC-36" value="&lt;b&gt;队列&lt;/b&gt;" style="text;html=1;strokeColor=none;fillColor=none;align=center;verticalAlign=middle;whiteSpace=wrap;rounded=0;" vertex="1" parent="1">
          <mxGeometry x="654" y="120" width="56" height="20" as="geometry" />
        </mxCell>
      </root>
    </mxGraphModel>
  </diagram>
</mxfile>
